Coordinates
version=1
nRows=6
nColumns=63
inDegrees=yes

Units are S.I. units (second, meters, Newtons, ...)
If the header above contains a line with 'inDegrees', this indicates whether rotational values are in degrees (yes) or radians (no).

endheader
time	pelvis_tilt	pelvis_list	pelvis_rotation	pelvis_tx	pelvis_ty	pelvis_tz	hip_flexion_r	hip_adduction_r	hip_rotation_r	knee_angle_r	knee_angle_r_beta	ankle_angle_r	subtalar_angle_r	mtp_angle_r	hip_flexion_l	hip_adduction_l	hip_rotation_l	knee_angle_l	knee_angle_l_beta	ankle_angle_l	subtalar_angle_l	mtp_angle_l	L5_S1_Flex_Ext	L5_S1_Lat_Bending	L5_S1_axial_rotation	L4_L5_Flex_Ext	L4_L5_Lat_Bending	L4_L5_axial_rotation	L3_L4_Flex_Ext	L3_L4_Lat_Bending	L3_L4_axial_rotation	L2_L3_Flex_Ext	L2_L3_Lat_Bending	L2_L3_axial_rotation	L1_L2_Flex_Ext	L1_L2_Lat_Bending	L1_L2_axial_rotation	L1_T12_Flex_Ext	L1_T12_Lat_Bending	L1_T12_axial_rotation	Abs_r3	Abs_r2	Abs_r1	Abs_t1	Abs_t2	neck_flexion	neck_bending	neck_rotation	arm_flex_r	arm_add_r	arm_rot_r	elbow_flex_r	pro_sup_r	wrist_flex_r	wrist_dev_r	arm_flex_l	arm_add_l	arm_rot_l	elbow_flex_l	pro_sup_l	wrist_flex_l	wrist_dev_l
7.050000	-1.573599	-5.621491	100.412483	0.155023	1.107532	0.458915	10.812107	-3.083723	-7.537502	20.343353	0.355058	22.672266	-1.087811	0.000000	14.224365	3.695490	7.788155	22.709580	0.396357	21.404873	-9.766740	0.000000	0.091983	0.243121	-0.934763	0.170822	0.323351	-0.993186	0.151119	0.591125	-0.993186	0.105127	0.591125	-0.817918	0.085415	0.495773	-0.759495	0.052559	0.376595	-0.701072	0.657025	2.750237	-5.198873	0.000000	0.000000	27.164031	-1.822921	0.796787	4.867530	-14.553873	38.071151	23.082485	83.712414	-6.290041	-2.323256	9.453713	-6.589273	152.537775	4.372020	2.872273	-15.737250	-16.925318
7.066667	-1.539277	-5.658485	100.454978	0.154783	1.107538	0.459059	10.956895	-3.064726	-7.501919	20.493550	0.357680	22.647253	-1.335728	0.000000	14.248665	3.667581	7.707980	22.625681	0.394893	21.483053	-9.576476	0.000000	0.094078	0.245821	-0.930809	0.174713	0.326942	-0.988984	0.154561	0.597688	-0.988984	0.107522	0.597688	-0.814458	0.087361	0.501278	-0.756282	0.053756	0.380776	-0.698107	0.671991	2.780773	-5.176880	0.000000	0.000000	27.191172	-1.841331	0.545133	4.622705	-14.502864	37.139547	23.284006	84.249028	-6.672580	-2.477697	9.399579	-6.550557	152.603014	4.101816	2.699248	-15.398910	-16.952993
7.083333	-1.498764	-5.703787	100.458778	0.154600	1.107553	0.459230	11.113001	-3.030520	-7.422728	20.632729	0.360109	22.614231	-1.607864	0.000000	14.268682	3.621978	7.582880	22.510211	0.392877	21.575142	-9.343488	0.000000	0.095923	0.248595	-0.926422	0.178138	0.330631	-0.984323	0.157592	0.604434	-0.984323	0.109630	0.604434	-0.810619	0.089074	0.506935	-0.752718	0.054810	0.385073	-0.694816	0.685167	2.812155	-5.152479	0.000000	0.000000	27.222273	-1.821747	0.317001	4.417013	-14.464307	36.276435	23.507469	84.728786	-6.988439	-2.550902	9.341063	-6.520611	152.454017	3.857179	2.544491	-15.125758	-17.032087
7.100000	-1.454902	-5.772849	100.434435	0.154467	1.107574	0.459384	11.285540	-2.986029	-7.299377	20.748703	0.362133	22.565974	-1.916359	0.000000	14.293162	3.566667	7.419872	22.352558	0.390126	21.658266	-9.077762	0.000000	0.100748	0.250531	-0.925710	0.187099	0.333206	-0.983567	0.165518	0.609140	-0.983567	0.115145	0.609140	-0.809996	0.093554	0.510882	-0.752139	0.057567	0.388072	-0.694282	0.719631	2.834053	-5.148520	0.000000	0.000000	27.259784	-1.739098	0.149551	4.283725	-14.436070	35.637797	23.706299	85.101601	-7.207448	-2.541750	9.266032	-6.514050	151.946781	3.678785	2.434222	-14.970709	-17.230160
7.116667	-1.407141	-5.844806	100.368558	0.154386	1.107647	0.459461	11.440602	-2.929853	-7.148716	20.824375	0.363454	22.500076	-2.198463	0.000000	14.291317	3.497197	7.238792	22.144832	0.386500	21.716477	-8.822778	0.000000	0.105953	0.252271	-0.921480	0.196766	0.335520	-0.979073	0.174071	0.613372	-0.979073	0.121094	0.613372	-0.806295	0.098388	0.514431	-0.748703	0.060542	0.390768	-0.691110	0.756814	2.853740	-5.124997	0.000000	0.000000	27.312292	-1.598517	0.064217	4.205619	-14.422203	35.197289	23.880517	85.256039	-7.322766	-2.423164	9.163904	-6.508275	151.187006	3.507221	2.448520	-14.954593	-17.426495
7.133333	-1.351527	-5.937778	100.312641	0.154284	1.107772	0.459445	11.578042	-2.874165	-7.052939	20.839326	0.363715	22.410333	-2.395873	0.000000	14.280788	3.435590	7.142196	21.881975	0.381913	21.684194	-8.691884	0.000000	0.116136	0.254134	-0.921771	0.215676	0.337998	-0.979382	0.190800	0.617902	-0.979382	0.132732	0.617902	-0.806550	0.107844	0.518230	-0.748939	0.066360	0.393654	-0.691328	0.829547	2.874817	-5.126614	0.000000	0.000000	27.373215	-1.376593	0.118228	4.182177	-14.417845	34.970314	23.994095	85.322849	-7.321676	-2.226494	9.031435	-6.498926	150.523354	3.316195	2.355088	-14.981829	-17.595837
